<svg width="24" height="24" viewBox="0 0 24 24" fill="none" xmlns="http://www.w3.org/2000/svg">
<path d="M7.53659 17.5215L2.32744 12.3123C2.06843 12.0622 1.72151 11.9237 1.36142 11.9269C1.00133 11.93 0.656879 12.0744 0.402247 12.3291C0.147616 12.5837 0.003181 12.9282 5.19165e-05 13.2882C-0.00307717 13.6483 0.135349 13.9952 0.385518 14.2543L6.56563 20.4344C6.82317 20.6918 7.17242 20.8365 7.53659 20.8365C7.90075 20.8365 8.25001 20.6918 8.50755 20.4344L23.6145 5.32744C23.8647 5.06843 24.0031 4.72151 23.9999 4.36142C23.9968 4.00133 23.8524 3.65688 23.5978 3.40225C23.3431 3.14762 22.9987 3.00318 22.6386 3.00005C22.2785 2.99692 21.9316 3.13535 21.6726 3.38552L7.53659 17.5215Z" fill="black"/>
</svg>
