<svg width="25" height="25" viewBox="0 0 25 25" fill="none" xmlns="http://www.w3.org/2000/svg">
<path fill-rule="evenodd" clip-rule="evenodd" d="M16.3321 13.2071C16.7226 12.8166 16.7226 12.1834 16.3321 11.7929C15.9416 11.4024 15.3084 11.4024 14.9179 11.7929L10.7649 15.9459C10.7611 15.9496 10.7572 15.9534 10.7534 15.9572L10.7491 15.9614C10.5694 16.1422 10.4583 16.3913 10.4583 16.6664C10.4583 16.7646 10.4725 16.8596 10.4989 16.9493C10.5445 17.1047 10.6286 17.2512 10.7512 17.3738C10.7558 17.3783 10.7604 17.3828 10.765 17.3872L14.9179 21.5402C15.3084 21.9307 15.9416 21.9307 16.3321 21.5402C16.7226 21.1497 16.7226 20.5165 16.3321 20.126L13.8726 17.6664H21.875C22.4273 17.6664 22.875 17.2187 22.875 16.6664C22.875 16.1141 22.4273 15.6664 21.875 15.6664H13.8728L16.3321 13.2071Z" fill="white"/>
<path fill-rule="evenodd" clip-rule="evenodd" d="M10.0821 3.45931C9.69158 3.06878 9.05842 3.06878 8.66789 3.45931C8.27737 3.84983 8.27737 4.48299 8.66789 4.87352L11.128 7.33359H3.125C2.57272 7.33359 2.125 7.7813 2.125 8.33359C2.125 8.88587 2.57272 9.33359 3.125 9.33359H11.1275L8.66789 11.7931C8.27737 12.1837 8.27737 12.8168 8.66789 13.2074C9.05842 13.5979 9.69158 13.5979 10.0821 13.2074L14.2479 9.04159L14.2553 9.03414C14.3472 8.94056 14.417 8.8334 14.4646 8.71918C14.5143 8.60052 14.5417 8.47026 14.5417 8.33359C14.5417 8.33342 14.5417 8.33325 14.5417 8.33308C14.5417 8.27183 14.5361 8.21059 14.5249 8.15017C14.4893 7.95814 14.3973 7.7745 14.2488 7.62597L10.0821 3.45931Z" fill="white"/>
</svg>
