<svg width="24" height="24" viewBox="0 0 24 24" fill="none" xmlns="http://www.w3.org/2000/svg">
<path d="M23.4248 6.02876L17.9712 0.575164C17.7909 0.392938 17.5761 0.24828 17.3395 0.149556C17.1029 0.0508318 16.849 0 16.5926 0C16.3362 0 16.0823 0.0508318 15.8457 0.149556C15.609 0.24828 15.3943 0.392938 15.2139 0.575164L0.573421 15.2157C0.39151 15.3962 0.247174 15.611 0.148752 15.8476C0.05033 16.0843 -0.000227499 16.3381 7.69541e-07 16.5943V22.0479C7.69541e-07 22.5657 0.205664 23.0622 0.571748 23.4283C0.937832 23.7943 1.43435 24 1.95207 24H7.40566C7.66195 24.0002 7.91574 23.9497 8.15237 23.8512C8.389 23.7528 8.60378 23.6085 8.78431 23.4266L23.4248 8.78606C23.7869 8.41855 23.9899 7.92334 23.9899 7.40741C23.9899 6.89148 23.7869 6.39626 23.4248 6.02876V6.02876ZM7.40566 22.0479H1.95207V16.5943L12.6884 5.85795L18.142 11.3115L7.40566 22.0479ZM19.5207 9.9329L14.0671 4.4793L16.5926 1.95381L22.0462 7.40741L19.5207 9.9329Z" fill="black"/>
</svg>
