<svg width="24" height="24" viewBox="0 0 24 24" fill="none" xmlns="http://www.w3.org/2000/svg">
<path d="M21.2861 15.1713H20.4252V18.883C20.4275 18.9374 20.42 18.9919 20.4033 19.0429C20.3865 19.094 20.3608 19.1407 20.3277 19.1802C20.2946 19.2196 20.2548 19.251 20.2107 19.2725C20.1665 19.294 20.119 19.305 20.071 19.305C20.0231 19.305 19.9756 19.294 19.9314 19.2725C19.8873 19.251 19.8475 19.2196 19.8144 19.1802C19.7813 19.1407 19.7556 19.094 19.7388 19.0429C19.7221 18.9919 19.7146 18.9374 19.7169 18.883V9.02204C19.7173 8.98607 19.722 8.95032 19.7309 8.91578V2.58851C19.7531 1.92939 19.5447 1.28707 19.1511 0.802007C18.7575 0.316942 18.2109 0.0285912 17.6306 0L3.10644 0C2.526 0.0283542 1.97906 0.31657 1.58519 0.801633C1.19132 1.2867 0.982575 1.92914 1.00459 2.58851V17.7887C0.946631 19.3632 1.43955 20.8997 2.3757 22.0629C3.31185 23.226 4.61519 23.9212 6.00111 23.9966H18.7222C19.9468 24.0463 21.1389 23.5434 22.038 22.5978C22.937 21.6521 23.4699 20.3407 23.5201 18.9501V17.5417C23.4987 16.8912 23.2514 16.2768 22.8324 15.8328C22.4133 15.3888 21.8565 15.1513 21.2837 15.1722L21.2861 15.1713ZM16.3052 17.7896H4.41959C4.24219 17.7896 4.07206 17.7096 3.94662 17.5671C3.82118 17.4246 3.7507 17.2314 3.7507 17.0299C3.7507 16.8285 3.82118 16.6352 3.94662 16.4928C4.07206 16.3503 4.24219 16.2702 4.41959 16.2702H16.3077C16.4851 16.2702 16.6552 16.3503 16.7806 16.4928C16.9061 16.6352 16.9765 16.8285 16.9765 17.0299C16.9765 17.2314 16.9061 17.4246 16.7806 17.5671C16.6552 17.7096 16.4851 17.7896 16.3077 17.7896H16.3052ZM16.3077 14.7136H4.41959C4.24219 14.7136 4.07206 14.6336 3.94662 14.4911C3.82118 14.3486 3.7507 14.1554 3.7507 13.9539C3.7507 13.7524 3.82118 13.5592 3.94662 13.4167C4.07206 13.2743 4.24219 13.1942 4.41959 13.1942H16.3077C16.3955 13.1942 16.4825 13.2139 16.5636 13.2521C16.6448 13.2902 16.7185 13.3462 16.7806 13.4167C16.8427 13.4873 16.892 13.571 16.9256 13.6632C16.9592 13.7554 16.9765 13.8542 16.9765 13.9539C16.9765 14.0537 16.9592 14.1525 16.9256 14.2446C16.892 14.3368 16.8427 14.4206 16.7806 14.4911C16.7185 14.5616 16.6448 14.6176 16.5636 14.6558C16.4825 14.6939 16.3955 14.7136 16.3077 14.7136V14.7136ZM16.9765 10.877C16.9761 11.0783 16.9055 11.2712 16.7801 11.4136C16.6548 11.556 16.4849 11.6362 16.3077 11.6367H4.41959C4.24219 11.6367 4.07206 11.5566 3.94662 11.4141C3.82118 11.2717 3.7507 11.0785 3.7507 10.877C3.7507 10.6755 3.82118 10.4823 3.94662 10.3398C4.07206 10.1973 4.24219 10.1173 4.41959 10.1173H16.3077C16.4848 10.1178 16.6545 10.1978 16.7799 10.34C16.9052 10.4822 16.9759 10.6749 16.9765 10.876V10.877ZM15.8128 7.38803H4.91448C4.60572 7.38803 4.3096 7.24872 4.09128 7.00076C3.87295 6.75279 3.75029 6.41648 3.75029 6.06581C3.75029 5.71513 3.87295 5.37882 4.09128 5.13086C4.3096 4.88289 4.60572 4.74359 4.91448 4.74359H15.8128C16.1215 4.74359 16.4176 4.88289 16.636 5.13086C16.8543 5.37882 16.977 5.71513 16.977 6.06581C16.977 6.41648 16.8543 6.75279 16.636 7.00076C16.4176 7.24872 16.1215 7.38803 15.8128 7.38803Z" fill="#171716"/>
</svg>
