<svg width="24" height="24" viewBox="0 0 24 24" fill="none" xmlns="http://www.w3.org/2000/svg">
    <path d="M11.397 2.041 C 10.217 2.117,9.158 2.402,8.050 2.942 C 7.123 3.394,6.884 3.676,6.997 4.183 C 7.061 4.470,7.285 4.810,7.508 4.957 C 7.830 5.170,8.041 5.143,8.721 4.800 C 9.365 4.476,9.932 4.270,10.560 4.134 C 11.198 3.996,12.342 3.959,12.980 4.057 C 14.517 4.293,15.774 4.913,16.874 5.978 C 18.010 7.078,18.697 8.420,18.943 10.020 C 19.000 10.389,19.007 10.647,18.987 11.620 C 18.946 13.645,18.732 15.218,18.220 17.260 C 18.099 17.744,18.000 18.184,18.000 18.240 C 18.001 18.723,18.399 19.067,19.007 19.111 C 19.349 19.136,19.448 19.109,19.636 18.939 C 19.838 18.756,19.923 18.548,20.137 17.713 C 20.623 15.817,20.883 13.987,20.958 11.949 C 20.998 10.857,20.963 10.081,20.842 9.420 C 20.021 4.905,15.978 1.746,11.397 2.041 M4.740 6.020 C 4.479 6.111,4.264 6.390,3.938 7.059 C 3.597 7.759,3.358 8.440,3.221 9.100 C 3.095 9.707,3.049 10.146,3.001 11.200 C 2.938 12.607,2.740 13.500,2.237 14.662 C 1.984 15.246,1.941 15.420,1.999 15.636 C 2.089 15.972,2.546 16.317,2.989 16.383 C 3.226 16.419,3.476 16.318,3.662 16.112 C 4.003 15.736,4.562 14.241,4.774 13.140 C 4.892 12.528,4.925 12.214,4.980 11.135 C 5.063 9.540,5.191 8.996,5.766 7.796 C 6.138 7.020,6.166 6.855,5.981 6.539 C 5.859 6.330,5.546 6.104,5.258 6.018 C 5.025 5.947,4.945 5.948,4.740 6.020 M11.556 6.045 C 10.959 6.092,10.372 6.257,9.789 6.544 C 8.549 7.154,7.609 8.278,7.223 9.613 C 7.080 10.106,7.044 10.368,7.019 11.080 C 6.927 13.682,6.422 15.500,5.205 17.618 C 4.997 17.979,4.829 18.323,4.805 18.433 C 4.722 18.822,4.914 19.159,5.353 19.393 C 5.815 19.639,6.176 19.596,6.474 19.257 C 6.752 18.941,7.339 17.898,7.720 17.040 C 8.488 15.316,8.872 13.626,8.962 11.580 C 9.019 10.271,9.104 9.911,9.485 9.341 C 9.858 8.783,10.432 8.342,11.060 8.130 C 11.353 8.032,11.433 8.023,12.000 8.023 C 12.567 8.023,12.647 8.032,12.940 8.130 C 13.408 8.288,13.737 8.497,14.120 8.880 C 14.505 9.265,14.715 9.596,14.867 10.060 C 14.961 10.343,14.975 10.461,14.991 11.083 C 15.009 11.814,14.967 12.606,14.855 13.600 C 14.780 14.263,14.804 14.430,15.002 14.656 C 15.146 14.821,15.324 14.909,15.624 14.964 C 16.181 15.067,16.591 14.840,16.721 14.357 C 16.840 13.914,16.961 12.423,16.967 11.320 C 16.972 10.432,16.928 10.084,16.734 9.469 C 16.247 7.928,14.951 6.672,13.383 6.221 C 12.785 6.049,12.206 5.993,11.556 6.045 M11.756 10.040 C 11.420 10.098,11.218 10.251,11.097 10.541 C 11.047 10.662,11.022 10.907,10.997 11.560 C 10.915 13.663,10.557 15.393,9.812 17.279 C 9.539 17.969,9.114 18.851,8.760 19.460 C 8.205 20.416,8.168 20.516,8.247 20.830 C 8.336 21.185,8.831 21.556,9.262 21.592 C 9.658 21.625,9.894 21.421,10.348 20.653 C 11.930 17.977,12.814 14.979,12.959 11.795 C 13.008 10.730,12.960 10.462,12.682 10.228 C 12.481 10.059,12.100 9.981,11.756 10.040 M14.687 16.086 C 14.591 16.133,14.471 16.236,14.418 16.316 C 14.366 16.395,14.179 16.895,14.004 17.426 C 13.654 18.486,13.468 18.959,12.999 19.980 C 12.827 20.354,12.675 20.725,12.660 20.804 C 12.596 21.149,12.825 21.507,13.245 21.716 C 13.713 21.950,14.054 21.911,14.343 21.592 C 14.801 21.084,16.160 17.573,16.160 16.895 C 16.160 16.476,15.954 16.223,15.496 16.082 C 15.154 15.976,14.906 15.977,14.687 16.086" stroke="none" fill="black" />
</svg>
