<svg width="24" height="24" viewBox="0 0 24 24" fill="none" xmlns="http://www.w3.org/2000/svg">
<g clip-path="url(#clip0_66_13)">
<path d="M20.0366 13.2254C20.9919 11.4019 21.2957 9.30677 20.8978 7.287C20.4998 5.26723 19.424 3.44397 17.8483 2.11913C16.2727 0.79429 14.2918 0.047354 12.2337 0.00201C10.1756 -0.043334 8.16374 0.615634 6.53128 1.86979C6.03093 2.25484 5.5719 2.69079 5.16157 3.17062C3.88371 4.66861 3.13022 6.54306 3.01577 8.50871C2.90132 10.4744 3.43217 12.4236 4.52754 14.0598V9.17206C4.52754 4.94505 7.95958 1.44536 12.1859 1.52924C13.4909 1.5561 14.7664 1.92274 15.8865 2.59299C17.0065 3.26324 17.9325 4.21394 18.573 5.35128C19.2135 6.48862 19.5465 7.77331 19.5389 9.07858C19.5314 10.3839 19.1837 11.6646 18.5301 12.7945C18.1258 13.4907 17.5466 14.0692 16.8499 14.4727C16.1533 14.8762 15.3633 15.0908 14.5582 15.0952H14.5344C13.8735 15.0958 13.2147 15.0235 12.5697 14.8797C11.8505 14.7212 11.1537 14.4739 10.4955 14.1435C11.2411 13.8444 11.943 13.4464 12.5824 12.9602C13.6944 12.1182 14.5961 11.0299 15.2165 9.78067C15.8369 8.53146 16.1593 7.1554 16.1581 5.7606C16.1589 5.4243 16.1401 5.08824 16.1018 4.75412C15.899 5.75475 15.422 6.67932 14.7243 7.42466C14.6069 7.54515 14.4751 7.67384 14.3303 7.80723C14.3208 7.81682 14.311 7.82467 14.3014 7.83304C13.6805 8.40141 12.9939 8.89361 12.2563 9.29918C11.1791 9.8698 10.0193 10.2685 8.81889 10.4809L8.5521 10.5275C7.8773 10.6702 7.2609 11.0123 6.78272 11.5093C6.30453 12.0064 5.98658 12.6356 5.87005 13.3154V13.3169C5.83636 13.5091 5.81967 13.7039 5.82018 13.899C5.81936 14.1736 5.85174 14.4473 5.91661 14.7142C6.11421 15.5255 6.59986 16.2374 7.28318 16.7174C7.4729 16.8363 7.66576 16.9457 7.86524 17.0487C9.98685 18.1526 12.4596 18.37 14.7413 17.6533C17.023 16.9365 18.9273 15.3442 20.0366 13.2254" fill="#F9F9F9"/>
<path d="M4.31621 21.4682C4.18511 21.4618 4.05424 21.4851 3.93344 21.5364C3.81264 21.5877 3.70504 21.6658 3.61872 21.7647C3.43847 21.9959 3.34831 22.2847 3.365 22.5774C3.34568 22.8716 3.43283 23.163 3.61052 23.3982C3.69821 23.4961 3.80691 23.5729 3.92848 23.6229C4.05005 23.6729 4.18135 23.6947 4.31255 23.6868C4.53658 23.6823 4.7588 23.6456 4.97238 23.5778V23.8786C4.86351 23.9192 4.75073 23.9484 4.63584 23.9658C4.51246 23.9825 4.38805 23.9904 4.26355 23.9893C4.09011 24.0001 3.91642 23.9726 3.75479 23.9087C3.59316 23.8449 3.44753 23.7464 3.32821 23.62C3.09286 23.324 2.97596 22.9511 3.00021 22.5738C2.99449 22.3168 3.0482 22.062 3.15715 21.8292C3.25597 21.6225 3.4153 21.4507 3.61401 21.3366C3.82982 21.2173 4.07352 21.1576 4.32005 21.1636C4.58241 21.1574 4.84256 21.2129 5.07962 21.3254L4.94012 21.6187C4.74536 21.5242 4.53247 21.4729 4.31604 21.4682" fill="#F9F9F9"/>
<path d="M7.77449 23.9519H7.36645L6.38995 22.6395L6.10974 22.8858V23.9517H5.76465V21.2027H6.11061V22.5588L6.34741 22.2972L7.32704 21.2027H7.73124L6.6428 22.401L7.77449 23.9519Z" fill="#F9F9F9"/>
<path d="M8.32666 23.9519V21.1947H10.4908C10.6293 21.1928 10.7664 21.2222 10.8919 21.2808C11.007 21.3341 11.1065 21.4163 11.1805 21.5193C11.2531 21.6224 11.2911 21.7459 11.2888 21.8719C11.2931 21.9852 11.2704 22.0979 11.2227 22.2006C11.1822 22.282 11.1215 22.3517 11.0464 22.4029C10.9721 22.4527 10.8902 22.4899 10.8038 22.5131V22.5291C10.9018 22.5491 10.9954 22.5864 11.0802 22.6394C11.1646 22.6932 11.2331 22.7687 11.2786 22.8578C11.332 22.9703 11.3573 23.0941 11.3524 23.2185C11.3554 23.3552 11.3162 23.4895 11.2401 23.6031C11.1638 23.7139 11.0594 23.8025 10.9376 23.8596C10.8055 23.9223 10.6609 23.9538 10.5147 23.9519H8.32666ZM9.27648 22.2686H10.0906C10.1333 22.2699 10.1755 22.2595 10.2127 22.2385C10.2466 22.218 10.2737 22.188 10.2908 22.1523C10.3108 22.1086 10.3204 22.0609 10.3189 22.0128C10.3192 21.9845 10.3135 21.9565 10.3021 21.9305C10.2907 21.9046 10.2739 21.8814 10.2528 21.8625C10.209 21.8212 10.1506 21.7989 10.0905 21.8004H9.27648V22.2686ZM9.27648 23.3105H10.1541C10.185 23.3119 10.2159 23.3069 10.2449 23.2959C10.2738 23.2848 10.3002 23.268 10.3224 23.2464C10.3453 23.2202 10.3627 23.1898 10.3737 23.1569C10.3848 23.124 10.3891 23.0892 10.3865 23.0545C10.3868 23.0159 10.3765 22.9779 10.3567 22.9447C10.3369 22.9115 10.3084 22.8844 10.2742 22.8662C10.2385 22.8473 10.1986 22.8376 10.1581 22.8381H9.27648V23.3105Z" fill="#F9F9F9"/>
<path d="M13.3721 23.9998C13.0774 24.0087 12.7838 23.9589 12.5084 23.8535C12.292 23.7683 12.1086 23.6159 11.9853 23.4186C11.8617 23.2032 11.8006 22.9576 11.8088 22.7094V21.1955H12.7587V22.6815C12.7494 22.8521 12.8055 23.0198 12.9156 23.1504C12.9742 23.2102 13.0451 23.2565 13.1234 23.2863C13.2017 23.316 13.2854 23.3285 13.369 23.3229C13.4527 23.3283 13.5366 23.3157 13.6151 23.286C13.6935 23.2562 13.7647 23.21 13.8237 23.1504C13.9348 23.0202 13.9915 22.8523 13.9821 22.6815V21.1955H14.9319V22.7094C14.9402 22.9576 14.8791 23.2033 14.7556 23.4188C14.6323 23.616 14.4489 23.7685 14.2325 23.8536C13.9584 23.9589 13.6662 24.0086 13.3728 23.9999" fill="#F9F9F9"/>
<path d="M15.5239 23.9517V21.1945H16.4737V23.2144H18.1085V23.9518L15.5239 23.9517Z" fill="#F9F9F9"/>
<path d="M18.4814 23.9517V21.1945H19.4313V23.2144H21.0664V23.9518L18.4814 23.9517Z" fill="#F9F9F9"/>
</g>
<defs>
<clipPath id="clip0_66_13">
<rect width="18.0664" height="24" fill="white" transform="translate(3)"/>
</clipPath>
</defs>
</svg>
