<svg width="24" height="24" viewBox="0 0 24 24" fill="none" xmlns="http://www.w3.org/2000/svg">
<path d="M19.0824 3H18.6823C18.117 3 17.5818 3.24896 17.2166 3.6817L11.9975 9.93733V9.96407L6.76841 3.6934C6.40658 3.25731 5.87133 3.00334 5.30607 3H4.91589C3.85706 3 3 3.86048 3 4.9198V19.0518C3 19.9006 3.52691 20.6842 4.33729 20.9348C5.20602 21.2038 6.10144 20.8396 6.54998 20.1077L10.3117 14.5138C10.4451 14.3367 10.4101 14.086 10.2333 13.9524C10.0749 13.8321 9.85317 13.8471 9.71144 13.9875L6.00973 17.1921C5.9497 17.2473 5.85632 17.2439 5.8013 17.1838C5.77629 17.1554 5.76128 17.1186 5.76295 17.0802V7.02004C5.76295 6.9365 5.83131 6.87134 5.91468 6.87134C5.95804 6.87134 5.99972 6.89139 6.0264 6.92314L11.3522 13.2857C11.8724 13.8304 12.1993 13.8204 12.6278 13.3057L17.9619 6.91144C17.9903 6.87802 18.0303 6.85964 18.0736 6.85964C18.157 6.85964 18.2237 6.92481 18.2254 7.00835V17.0802C18.2254 17.1186 18.212 17.1554 18.187 17.1838C18.132 17.2439 18.0386 17.2489 17.9786 17.1921L14.2769 13.9875C14.1352 13.8471 13.9134 13.8337 13.755 13.9524C13.5782 14.086 13.5449 14.3367 13.6766 14.5138L17.4384 20.1077C17.7868 20.6758 18.4055 21.0234 19.0708 21.0234H19.0774C20.1379 21.0267 21 20.1662 21 19.1036V4.92147C21 3.86048 20.1413 3.00167 19.0841 3.00167L19.0824 3Z" fill="#3F4246"/>
</svg>
