<svg width="25" height="24" viewBox="0 0 25 24" fill="none" xmlns="http://www.w3.org/2000/svg">
<path d="M11.7929 2.29289C12.1834 1.90237 12.8166 1.90237 13.2071 2.29289L16.2071 5.29289C16.5976 5.68342 16.5976 6.31658 16.2071 6.70711C15.8166 7.09763 15.1834 7.09763 14.7929 6.70711L13.5 5.41421V15C13.5 15.5523 13.0523 16 12.5 16C11.9477 16 11.5 15.5523 11.5 15V5.41421L10.2071 6.70711C9.81658 7.09763 9.18342 7.09763 8.79289 6.70711C8.40237 6.31658 8.40237 5.68342 8.79289 5.29289L11.7929 2.29289ZM4.5 11C4.5 9.89543 5.39543 9 6.5 9H8.5C9.05228 9 9.5 9.44772 9.5 10C9.5 10.5523 9.05228 11 8.5 11H6.5V20H18.5V11H16.5C15.9477 11 15.5 10.5523 15.5 10C15.5 9.44772 15.9477 9 16.5 9H18.5C19.6046 9 20.5 9.89543 20.5 11V20C20.5 21.1046 19.6046 22 18.5 22H6.5C5.39543 22 4.5 21.1046 4.5 20V11Z" fill="white"/>
</svg>
