<svg width="24" height="24" viewBox="0 0 24 24" fill="none" xmlns="http://www.w3.org/2000/svg">
<g clip-path="url(#clip0_622_132)">
<path d="M21.3102 6.86281L14.8952 0.44779C14.6082 0.16101 14.219 -5.6143e-05 13.8133 1.46801e-08H3.53042C3.12453 1.46801e-08 2.73526 0.16124 2.44825 0.44825C2.16124 0.73526 2 1.12453 2 1.53042L2 22.4696C2 22.8755 2.16124 23.2647 2.44825 23.5517C2.73526 23.8388 3.12453 24 3.53042 24H20.2276C20.6335 24 21.0228 23.8388 21.3098 23.5517C21.5968 23.2647 21.758 22.8755 21.758 22.4696V7.94473C21.7581 7.74382 21.7186 7.54487 21.6418 7.35923C21.5649 7.17359 21.4523 7.00491 21.3102 6.86281V6.86281ZM14.0188 2.24745C14.0189 2.18676 14.0369 2.12745 14.0707 2.077C14.1045 2.02656 14.1524 1.98723 14.2084 1.96397C14.2645 1.94071 14.3262 1.93456 14.3857 1.9463C14.4453 1.95804 14.5 1.98714 14.5431 2.02994L19.2661 6.7537C19.3089 6.7967 19.338 6.85138 19.3497 6.91086C19.3615 6.97035 19.3554 7.03198 19.3322 7.08802C19.3091 7.14405 19.2699 7.19198 19.2195 7.22579C19.1692 7.25959 19.11 7.27776 19.0493 7.27801H14.3284C14.2468 7.27801 14.1686 7.24561 14.111 7.18794C14.0533 7.13028 14.0209 7.05206 14.0209 6.97051L14.0188 2.24745ZM20.8355 22.2478C20.8355 22.3579 20.8138 22.4669 20.7716 22.5685C20.7294 22.6702 20.6676 22.7625 20.5897 22.8402C20.5118 22.918 20.4193 22.9796 20.3175 23.0215C20.2157 23.0634 20.1067 23.0849 19.9966 23.0846H3.66929C3.55941 23.0846 3.4506 23.0629 3.34907 23.0209C3.24755 22.9788 3.15531 22.9172 3.07761 22.8395C2.9999 22.7618 2.93827 22.6695 2.89622 22.568C2.85417 22.4665 2.83252 22.3577 2.83252 22.2478V1.79754C2.83252 1.57561 2.92068 1.36278 3.07761 1.20585C3.23453 1.04892 3.44737 0.960765 3.66929 0.960765H12.0809C12.3029 0.960765 12.5158 1.0489 12.6729 1.20581C12.8299 1.36271 12.9182 1.57555 12.9184 1.79754V7.84341C12.9183 7.95336 12.9399 8.06225 12.9819 8.16385C13.0239 8.26545 13.0856 8.35778 13.1633 8.43556C13.241 8.51334 13.3333 8.57504 13.4348 8.61713C13.5364 8.65923 13.6453 8.6809 13.7552 8.6809H19.9966C20.2186 8.6809 20.4314 8.76906 20.5883 8.92598C20.7452 9.08291 20.8334 9.29574 20.8334 9.51767L20.8355 22.2478Z" fill="#474645"/>
<path d="M10.5466 6.97524H5.33967C5.09444 6.97524 4.85926 6.87782 4.68586 6.70442C4.51246 6.53102 4.41504 6.29583 4.41504 6.05061C4.41504 5.80538 4.51246 5.5702 4.68586 5.39679C4.85926 5.22339 5.09444 5.12598 5.33967 5.12598H10.5466C10.7919 5.12598 11.0271 5.22339 11.2005 5.39679C11.3739 5.5702 11.4713 5.80538 11.4713 6.05061C11.4713 6.29583 11.3739 6.53102 11.2005 6.70442C11.0271 6.87782 10.7919 6.97524 10.5466 6.97524Z" fill="#474645"/>
<path d="M10.5466 9.83852H5.33967C5.21825 9.83852 5.09801 9.8146 4.98583 9.76814C4.87365 9.72167 4.77172 9.65356 4.68586 9.5677C4.6 9.48184 4.53189 9.37991 4.48542 9.26773C4.43896 9.15555 4.41504 9.03531 4.41504 8.91389C4.41504 8.79246 4.43896 8.67223 4.48542 8.56005C4.53189 8.44787 4.6 8.34594 4.68586 8.26008C4.77172 8.17422 4.87365 8.10611 4.98583 8.05964C5.09801 8.01318 5.21825 7.98926 5.33967 7.98926H10.5466C10.6681 7.98926 10.7883 8.01318 10.9005 8.05964C11.0127 8.10611 11.1146 8.17422 11.2005 8.26008C11.2863 8.34594 11.3544 8.44787 11.4009 8.56005C11.4474 8.67223 11.4713 8.79246 11.4713 8.91389C11.4713 9.03531 11.4474 9.15555 11.4009 9.26773C11.3544 9.37991 11.2863 9.48184 11.2005 9.5677C11.1146 9.65356 11.0127 9.72167 10.9005 9.76814C10.7883 9.8146 10.6681 9.83852 10.5466 9.83852Z" fill="#474645"/>
<path d="M17.8636 13.3537C17.8629 13.837 17.6703 14.3003 17.3282 14.6417C16.9861 14.9832 16.5225 15.1748 16.0392 15.1746C15.6624 15.1754 15.2949 15.058 14.9884 14.8388L8.98153 18.7059C9.01379 18.8401 9.0302 18.9775 9.03041 19.1155C9.02999 19.4759 8.92272 19.828 8.72216 20.1275C8.5216 20.4269 8.23676 20.6602 7.90366 20.7977C7.57055 20.9353 7.20413 20.971 6.85074 20.9003C6.49734 20.8296 6.17283 20.6558 5.91824 20.4007C5.66365 20.1456 5.49041 19.8208 5.42043 19.4672C5.35045 19.1137 5.38686 18.7473 5.52507 18.4145C5.66328 18.0817 5.89707 17.7973 6.19689 17.5973C6.49672 17.3973 6.8491 17.2907 7.2095 17.291C7.56274 17.2911 7.908 17.3962 8.20144 17.5928L14.2501 13.7016C14.2261 13.5875 14.2144 13.4711 14.2154 13.3544C14.2154 13.1151 14.2626 12.8781 14.3542 12.6569C14.4458 12.4358 14.58 12.2348 14.7493 12.0656C14.9185 11.8963 15.1195 11.7621 15.3406 11.6705C15.5617 11.5789 15.7988 11.5317 16.0381 11.5317C16.2775 11.5317 16.5145 11.5789 16.7356 11.6705C16.9568 11.7621 17.1577 11.8963 17.327 12.0656C17.4962 12.2348 17.6305 12.4358 17.7221 12.6569C17.8137 12.8781 17.8608 13.1151 17.8608 13.3544" fill="#474645"/>
</g>
<defs>
<clipPath id="clip0_622_132">
<rect width="19.758" height="24" fill="white" transform="translate(2)"/>
</clipPath>
</defs>
</svg>
