<svg width="24" height="24" viewBox="0 0 24 24" fill="none" xmlns="http://www.w3.org/2000/svg">
<g clip-path="url(#clip0_605_126)">
<path d="M23.6424 2.07804L16.8925 8.83154L19.2305 11.1696C19.3502 11.2889 19.4363 11.4376 19.4801 11.6008C19.524 11.7639 19.5241 11.9358 19.4804 12.099C19.4368 12.2622 19.3509 12.411 19.2314 12.5305C19.1119 12.6499 18.963 12.7358 18.7998 12.7793L10.0653 15.1174C9.90202 15.1615 9.73001 15.1618 9.56661 15.1182C9.40322 15.0746 9.25421 14.9887 9.13463 14.8691C9.01505 14.7495 8.92912 14.6005 8.88553 14.4371C8.84193 14.2737 8.8422 14.1017 8.88631 13.9385L11.2244 5.20398C11.2679 5.04069 11.3537 4.89175 11.4731 4.77217C11.5925 4.65258 11.7413 4.56658 11.9045 4.52283C12.0677 4.47908 12.2396 4.47912 12.4028 4.52295C12.566 4.56679 12.7148 4.65286 12.8341 4.7725L15.1722 7.11058L21.925 0.354243C22.0375 0.24105 22.1713 0.151221 22.3187 0.0899237C22.4661 0.0286265 22.6241 -0.00292969 22.7837 -0.00292969C22.9433 -0.00292969 23.1013 0.0286265 23.2487 0.0899237C23.3961 0.151221 23.5299 0.24105 23.6424 0.354243C23.7559 0.466978 23.8459 0.601044 23.9074 0.748721C23.9688 0.896399 24.0005 1.05477 24.0005 1.21473C24.0005 1.37468 23.9688 1.53305 23.9074 1.68073C23.8459 1.82841 23.7559 1.96247 23.6424 2.07521" fill="#474645"/>
<path d="M12.5137 23.9995C9.19655 23.9958 6.01626 22.6766 3.67038 20.3312C1.32451 17.9859 0.00457053 14.8059 7.01868e-05 11.4887C-0.00919423 8.73434 0.898936 6.05532 2.58116 3.87435C2.78001 3.62498 3.06879 3.46363 3.38538 3.42499C3.70198 3.38635 4.02109 3.47351 4.27408 3.66773C4.52706 3.86195 4.69371 4.14771 4.73818 4.46354C4.78265 4.77936 4.70138 5.10003 4.51185 5.35655C3.15699 7.11288 2.42581 9.27051 2.4338 11.4887C2.43755 14.1606 3.50083 16.722 5.39046 18.6111C7.28008 20.5002 9.84178 21.5628 12.5137 21.5658C14.7296 21.5745 16.8851 20.8437 18.6388 19.4892C18.7652 19.3891 18.9102 19.3151 19.0654 19.2715C19.2207 19.228 19.383 19.2157 19.543 19.2354C19.703 19.2552 19.8575 19.3065 19.9975 19.3865C20.1375 19.4665 20.2602 19.5735 20.3584 19.7013C20.4567 19.8291 20.5286 19.9751 20.5699 20.131C20.6113 20.2868 20.6212 20.4493 20.5992 20.609C20.5771 20.7687 20.5236 20.9225 20.4416 21.0613C20.3596 21.2001 20.2509 21.3213 20.1217 21.4177C17.9434 23.1014 15.2655 24.01 12.5123 23.9995" fill="#474645"/>
</g>
<defs>
<clipPath id="clip0_605_126">
<rect width="24" height="23.9993" fill="white"/>
</clipPath>
</defs>
</svg>
