<svg width="24" height="25" viewBox="0 0 24 25" fill="none" xmlns="http://www.w3.org/2000/svg">
<path d="M4 7.96875C4 7.41647 4.44772 6.96875 5 6.96875H6C6.55228 6.96875 7 7.41647 7 7.96875C7 8.52103 6.55228 8.96875 6 8.96875H5C4.44772 8.96875 4 8.52103 4 7.96875ZM9 7.96875C9 7.41647 9.44772 6.96875 10 6.96875H19C19.5523 6.96875 20 7.41647 20 7.96875C20 8.52103 19.5523 8.96875 19 8.96875H10C9.44772 8.96875 9 8.52103 9 7.96875ZM4 12.9688C4 12.4165 4.44772 11.9688 5 11.9688H6C6.55228 11.9688 7 12.4165 7 12.9688C7 13.521 6.55228 13.9688 6 13.9688H5C4.44772 13.9688 4 13.521 4 12.9688ZM9 12.9688C9 12.4165 9.44772 11.9688 10 11.9688H19C19.5523 11.9688 20 12.4165 20 12.9688C20 13.521 19.5523 13.9688 19 13.9688H10C9.44772 13.9688 9 13.521 9 12.9688ZM4 17.9688C4 17.4165 4.44772 16.9688 5 16.9688H6C6.55228 16.9688 7 17.4165 7 17.9688C7 18.521 6.55228 18.9688 6 18.9688H5C4.44772 18.9688 4 18.521 4 17.9688ZM9 17.9688C9 17.4165 9.44772 16.9688 10 16.9688H19C19.5523 16.9688 20 17.4165 20 17.9688C20 18.521 19.5523 18.9688 19 18.9688H10C9.44772 18.9688 9 18.521 9 17.9688Z" fill="#A7A7A7"/>
</svg>
