<svg width="24" height="24" viewBox="0 0 24 24" fill="none" xmlns="http://www.w3.org/2000/svg">
<g clip-path="url(#clip0_0_3)">
<path fill-rule="evenodd" clip-rule="evenodd" d="M21.4445 2.93122e-07H20.9116C20.1586 -0.000359936 19.4442 0.331321 18.9582 0.906714L12 9.23697V9.27229L5.02597 0.922577C4.54391 0.342137 3.82983 0.00432686 3.07539 2.93122e-07H2.5555C1.14427 2.93122e-07 0 1.14502 0 2.55755V21.3743C0 22.5045 0.702916 23.5486 1.78197 23.8821C2.94064 24.2405 4.13463 23.7559 4.7327 22.7814L9.7482 15.3334C9.92586 15.0983 9.87938 14.7641 9.64484 14.5864C9.43369 14.4263 9.13718 14.4458 8.94873 14.6322L4.01321 18.8986C3.93323 18.9725 3.80821 18.9671 3.73471 18.8867C3.70048 18.8492 3.68175 18.8002 3.68283 18.7493V5.35195C3.68391 5.24163 3.77434 5.15295 3.88459 5.15403C3.94259 5.15475 3.997 5.17999 4.03483 5.22397L11.1368 13.6955C11.8299 14.4216 12.2669 14.4079 12.8373 13.7229L19.9493 5.20811C19.9871 5.16413 20.0415 5.13853 20.0996 5.13781C20.2098 5.13673 20.3002 5.22541 20.3013 5.33609V18.7468C20.3024 18.7973 20.2837 18.8467 20.2495 18.8838C20.1759 18.9642 20.0509 18.9696 19.9709 18.8961L15.0354 14.6293C14.8469 14.4433 14.5504 14.4238 14.3393 14.5835C14.1048 14.7613 14.0583 15.0958 14.2359 15.3305L19.2514 22.7785C19.7162 23.536 20.5406 23.9971 21.4287 23.9975H21.4366C22.8511 24.0018 24 22.8553 24 21.4399V2.55719C24 1.14502 22.8561 2.93122e-07 21.4445 2.93122e-07Z" fill="white"/>
</g>
<defs>
<clipPath id="clip0_0_3">
<rect width="24" height="24" fill="white"/>
</clipPath>
</defs>
</svg>
