<svg width="24" height="24" viewBox="0 0 24 24" fill="none" xmlns="http://www.w3.org/2000/svg">
<g clip-path="url(#clip0_1_2)">
<path d="M5.25 20.73H16.5V21.2708H5.25C2.61975 21.2708 0.48 19.131 0.48 16.5015C0.48 13.8705 2.61975 11.7308 5.25 11.7308H7.5V12.2708H5.25C2.9175 12.2708 1.02 14.169 1.02 16.5015C1.02 18.8325 2.9175 20.73 5.25 20.73ZM18.75 11.73H16.5V12.27H18.75C21.3803 12.27 23.52 10.1303 23.52 7.5C23.52 4.86975 21.3795 2.73075 18.75 2.73075H7.5V3.27075H18.75C21.0825 3.27075 22.98 5.16825 22.98 7.50075C22.98 9.8325 21.0825 11.73 18.75 11.73ZM0.48 3C0.48 1.61025 1.61025 0.480003 3 0.480003C4.38975 0.480003 5.52 1.61025 5.52 3C5.52 4.38975 4.38975 5.52 3 5.52C1.61025 5.52 0.48 4.38975 0.48 3ZM1.02 3C1.02 4.092 1.90875 4.98 3 4.98C4.09125 4.98 4.98 4.092 4.98 3C4.98 1.908 4.092 1.02 3 1.02C1.908 1.02 1.02 1.908 1.02 3ZM23.52 21C23.52 22.3898 22.389 23.52 21 23.52C19.611 23.52 18.48 22.389 18.48 21C18.48 19.611 19.611 18.48 21 18.48C22.389 18.48 23.52 19.6103 23.52 21ZM22.98 21C22.98 19.908 22.092 19.02 21 19.02C19.908 19.02 19.02 19.908 19.02 21C19.02 22.092 19.908 22.98 21 22.98C22.092 22.98 22.98 22.092 22.98 21ZM12.5625 12C12.5625 11.6895 12.3105 11.4375 12 11.4375C11.6895 11.4375 11.4375 11.6895 11.4375 12C11.4375 12.2108 11.5583 12.3878 11.73 12.4838V13.3125C11.73 13.4618 11.8507 13.5825 12 13.5825C12.1492 13.5825 12.27 13.4618 12.27 13.3125V12.4838C12.4418 12.3878 12.5625 12.2108 12.5625 12ZM13.77 7.87125V9.48H15C15.1493 9.48 15.27 9.60075 15.27 9.75V15C15.27 15.1493 15.1493 15.27 15 15.27H9C8.85075 15.27 8.73 15.1493 8.73 15V9.75C8.73 9.60075 8.85075 9.48 9 9.48H10.23V7.87125C10.23 6.897 11.0242 6.105 12 6.105C12.9765 6.105 13.77 6.897 13.77 7.87125ZM10.77 9.48H13.23V7.87125C13.23 7.1955 12.6787 6.645 12 6.645C11.3212 6.645 10.77 7.1955 10.77 7.87125V9.48ZM14.73 10.02H9.27V14.73H14.73V10.02Z" fill="black"/>
</g>
<defs>
<clipPath id="clip0_1_2">
<rect width="24" height="24" fill="white"/>
</clipPath>
</defs>
</svg>
