<svg width="24" height="24" viewBox="0 0 24 24" fill="none" xmlns="http://www.w3.org/2000/svg">
<g clip-path="url(#clip0_602_126)">
<path d="M11.9988 23.9997C9.62567 23.9997 7.30582 23.296 5.33263 21.9775C3.35944 20.6591 1.82152 18.7851 0.91336 16.5926C0.00519886 14.4001 -0.232417 11.9876 0.230559 9.66003C0.693535 7.33249 1.83631 5.19451 3.51437 3.51645C5.19243 1.83839 7.33042 0.695611 9.65796 0.232634C11.9855 -0.230342 14.3981 0.00727405 16.5905 0.915435C18.783 1.8236 20.657 3.36151 21.9754 5.3347C23.2939 7.3079 23.9976 9.62774 23.9976 12.0009C23.9938 15.182 22.7284 18.2317 20.479 20.4811C18.2296 22.7305 15.1799 23.9959 11.9988 23.9997ZM11.9988 0.976726C9.81855 0.976929 7.68733 1.62365 5.87463 2.83511C4.06194 4.04657 2.64919 5.76835 1.81505 7.78273C0.980908 9.7971 0.762833 12.0136 1.1884 14.1519C1.61397 16.2902 2.66407 18.2543 4.20591 19.7958C5.74775 21.3373 7.71207 22.387 9.85048 22.8121C11.9889 23.2372 14.2053 23.0186 16.2195 22.1841C18.2337 21.3495 19.9552 19.9364 21.1663 18.1234C22.3773 16.3104 23.0236 14.1791 23.0233 11.9988C23.0197 9.07628 21.8569 6.27451 19.7901 4.20818C17.7234 2.14186 14.9213 0.97972 11.9988 0.976726" fill="#F9F9F9" fill-opacity="0.94"/>
<path d="M6.69833 12.9385L9.76899 16.0091C9.83311 16.0733 9.90924 16.1242 9.99303 16.1589C10.0768 16.1936 10.1666 16.2115 10.2573 16.2115C10.348 16.2115 10.4379 16.1936 10.5217 16.1589C10.6054 16.1242 10.6816 16.0733 10.7457 16.0091L17.3005 9.45438C17.3646 9.39027 17.4155 9.31415 17.4502 9.23038C17.4849 9.14661 17.5028 9.05682 17.5028 8.96614C17.5028 8.87547 17.485 8.78567 17.4503 8.70189C17.4156 8.61811 17.3647 8.54197 17.3006 8.47784C17.2365 8.41371 17.1604 8.36284 17.0766 8.32812C16.9929 8.2934 16.9031 8.27553 16.8124 8.27551C16.7217 8.2755 16.6319 8.29334 16.5482 8.32803C16.4644 8.36271 16.3882 8.41356 16.3241 8.47767L10.2561 14.5456L7.67537 11.9625C7.61129 11.8983 7.53519 11.8474 7.45143 11.8127C7.36767 11.7779 7.27789 11.76 7.18721 11.76C7.09653 11.7599 7.00673 11.7777 6.92294 11.8124C6.83914 11.847 6.763 11.8979 6.69884 11.962C6.63469 12.026 6.58379 12.1021 6.54904 12.1859C6.51429 12.2697 6.49639 12.3594 6.49634 12.4501C6.49629 12.5408 6.5141 12.6306 6.54876 12.7144C6.58342 12.7982 6.63424 12.8743 6.69833 12.9385Z" fill="#F9F9F9" fill-opacity="0.94"/>
</g>
<defs>
<clipPath id="clip0_602_126">
<rect width="24" height="23.9997" fill="white"/>
</clipPath>
</defs>
</svg>
