<svg width="24" height="24" viewBox="0 0 24 24" fill="none" xmlns="http://www.w3.org/2000/svg">
<g clip-path="url(#clip0_624_142)">
<path d="M13.534 5.98795V3.1061C13.534 2.28242 13.8611 1.49247 14.4435 0.909983C15.0259 0.327495 15.8158 0.000170393 16.6394 0L16.8746 0C17.6983 0.000170393 18.4882 0.327495 19.0705 0.909983C19.6529 1.49247 19.9801 2.28242 19.9801 3.1061V4.16374C19.9658 4.3064 19.899 4.43865 19.7926 4.53484C19.6863 4.63102 19.548 4.68428 19.4047 4.68428C19.2613 4.68428 19.123 4.63102 19.0167 4.53484C18.9104 4.43865 18.8436 4.3064 18.8293 4.16374V3.1061C18.8293 2.5877 18.6233 2.09053 18.2568 1.72396C17.8902 1.35739 17.393 1.15146 16.8746 1.15146H16.6343C16.1176 1.1518 15.6221 1.35712 15.2566 1.72237C14.8911 2.08763 14.6855 2.58296 14.6848 3.09968V5.98795C14.6848 5.98966 14.6855 5.99129 14.6867 5.9925C14.6879 5.9937 14.6895 5.99438 14.6912 5.99438H20.1047C20.4705 5.9954 20.8209 6.14114 21.0796 6.39975C21.3382 6.65837 21.4839 7.00884 21.4849 7.37458V12.4655C21.4839 12.833 21.3375 13.1851 21.0777 13.4449C20.8179 13.7047 20.4658 13.8511 20.0983 13.8522H13.5443C13.1785 13.8513 12.8279 13.7056 12.5693 13.447C12.3106 13.1883 12.1649 12.8377 12.1641 12.472V7.37458C12.1647 7.01205 12.3077 6.66426 12.5622 6.40611C12.8168 6.14796 13.1625 6.00011 13.525 5.99438C13.5265 5.99438 13.528 5.99377 13.5291 5.99268C13.5302 5.9916 13.5308 5.99013 13.5308 5.98859L13.534 5.98795ZM15.7155 10.4139C15.7119 10.6672 15.7987 10.9135 15.9604 11.1085C16.1221 11.3035 16.3481 11.4345 16.5977 11.4779C16.7458 11.5002 16.897 11.4902 17.041 11.4488C17.1849 11.4074 17.3183 11.3355 17.432 11.238C17.5457 11.1404 17.6371 11.0196 17.6999 10.8836C17.7627 10.7476 17.7955 10.5996 17.796 10.4498V9.39413C17.7996 9.14004 17.7122 8.89306 17.5496 8.69779C17.387 8.50253 17.1599 8.37187 16.9093 8.32942C16.7615 8.30778 16.6108 8.31816 16.4673 8.35985C16.3238 8.40154 16.191 8.47357 16.0778 8.57105C15.9646 8.66854 15.8737 8.78921 15.8111 8.92489C15.7486 9.06057 15.716 9.20811 15.7155 9.3575V10.4139Z" fill="#474645"/>
<path d="M22.5163 16.585C22.4144 16.4165 22.2893 16.2632 22.1449 16.1294C21.8835 15.8958 21.5623 15.7397 21.2171 15.6785C20.8719 15.6173 20.5166 15.6535 20.1909 15.7831C20.1088 15.8164 20.0292 15.8553 19.9525 15.8994C19.597 16.1063 19.319 16.4238 19.1609 16.8035C19.0472 17.0784 18.9997 17.3762 19.0221 17.6729C19.0322 17.8006 19.0554 17.927 19.0915 18.05L14.7394 20.5605C14.5207 20.4175 14.2748 20.3211 14.0172 20.2771L13.7795 17.0309C14.3803 16.931 14.9581 16.7231 15.4848 16.4173C15.7242 16.2799 15.9514 16.1224 16.164 15.9463C16.1966 15.9192 16.221 15.8836 16.2343 15.8434C16.2477 15.8032 16.2495 15.76 16.2396 15.7188C16.2297 15.6776 16.2085 15.64 16.1783 15.6102C16.1481 15.5805 16.1102 15.5598 16.0689 15.5505C15.9854 15.5321 15.9022 15.5122 15.8196 15.4907C15.7297 15.4653 15.6355 15.4589 15.543 15.4719C15.4505 15.485 15.3617 15.5172 15.2824 15.5666C15.213 15.6124 15.1421 15.6552 15.0697 15.6951C14.393 16.0898 13.6193 16.2874 12.8362 16.2657C12.1475 16.2502 11.4727 16.0692 10.8688 15.7379C10.2649 15.4067 9.74954 14.9349 9.36641 14.3624C9.31694 14.2866 9.26746 14.2069 9.2212 14.1285C8.82149 13.4358 8.62383 12.6449 8.65061 11.8455C8.66086 11.5493 8.70287 11.2551 8.77591 10.9678C8.91108 10.4098 9.15833 9.88513 9.50263 9.42568C9.55639 9.35547 9.59476 9.27473 9.61524 9.18871C9.63572 9.10269 9.63786 9.01332 9.62151 8.92642C9.61187 8.8763 9.60223 8.82554 9.59323 8.77542C9.58458 8.72095 9.56073 8.67004 9.52443 8.62853C9.48813 8.58702 9.44085 8.55659 9.38802 8.54075C9.3352 8.52491 9.27898 8.5243 9.22583 8.53899C9.17267 8.55367 9.12474 8.58306 9.08755 8.62378C8.5296 9.26261 8.13921 10.0301 7.95151 10.8573L4.6655 10.4017C4.62222 10.2662 4.56471 10.1357 4.49393 10.0123C4.45057 9.93669 4.40205 9.86413 4.34872 9.79515L7.44325 5.26194C7.76847 5.39189 8.12362 5.42802 8.46835 5.36623C8.81307 5.30444 9.13356 5.1472 9.3934 4.91239C9.54547 4.77448 9.67358 4.61228 9.77251 4.4324C9.86973 4.25485 9.93785 4.06286 9.97427 3.86374C10.0555 3.42512 9.97952 2.9719 9.75966 2.58378C9.50907 2.15633 9.09953 1.84541 8.62047 1.71891C8.14141 1.5924 7.63176 1.66059 7.20281 1.90859C6.77386 2.15659 6.46047 2.56425 6.33107 3.04253C6.20168 3.52082 6.26679 4.03088 6.51219 4.46132C6.53275 4.49601 6.55589 4.532 6.5803 4.56862C6.62341 4.63216 6.66996 4.6933 6.71974 4.75175L3.65155 9.24962C3.37198 9.12187 3.06527 9.06488 2.75847 9.08368C2.45167 9.10248 2.15422 9.1965 1.89234 9.35743C1.63047 9.51837 1.41223 9.74128 1.25687 10.0065C1.10151 10.2717 1.01381 10.5711 1.0015 10.8782C0.989196 11.1854 1.05266 11.4908 1.18631 11.7676C1.31995 12.0444 1.51966 12.284 1.76782 12.4654C2.01598 12.6468 2.30496 12.7643 2.60927 12.8076C2.91358 12.8509 3.22386 12.8186 3.51275 12.7136L4.80557 16.9031C4.64468 16.9464 4.49036 17.0113 4.34679 17.0958C4.1336 17.2189 3.94673 17.3827 3.79685 17.5779C3.64697 17.7732 3.53701 17.996 3.47326 18.2338C3.40951 18.4715 3.3932 18.7195 3.42528 18.9635C3.45736 19.2076 3.53719 19.4429 3.66022 19.6561C3.78325 19.8693 3.94706 20.0562 4.14231 20.206C4.33756 20.3559 4.56041 20.4659 4.79815 20.5296C5.0359 20.5934 5.28387 20.6097 5.52791 20.5776C5.77195 20.5455 6.00728 20.4657 6.22047 20.3427C6.54309 20.1575 6.8024 19.8794 6.96455 19.5446L11.9431 21.498C11.8383 21.7924 11.8089 22.1082 11.8574 22.4169C11.906 22.7256 12.0309 23.0172 12.2209 23.2652C12.4109 23.5133 12.6599 23.7099 12.9452 23.8371C13.2306 23.9644 13.5433 24.0183 13.8548 23.9939C14.1662 23.9695 14.4667 23.8675 14.7287 23.6974C14.9908 23.5272 15.2061 23.2942 15.3552 23.0196C15.5042 22.745 15.5822 22.4375 15.5821 22.125C15.5819 21.8126 15.5037 21.5051 15.3544 21.2307L19.5374 18.816C19.8545 19.1467 20.2817 19.3499 20.7384 19.3872C21.195 19.4245 21.6496 19.2934 22.0162 19.0186C22.3828 18.7437 22.6361 18.3442 22.7284 17.8954C22.8206 17.4466 22.7454 16.9796 22.5169 16.5824L22.5163 16.585ZM6.32457 17.1569C6.14345 17.038 5.94393 16.9498 5.73406 16.896L4.27675 12.1938C4.49868 11.9424 4.64893 11.6359 4.71176 11.3064L7.82943 11.7389C7.77809 12.7215 8.01314 13.6978 8.50604 14.5494C8.58146 14.6823 8.66404 14.811 8.75342 14.9349L6.32457 17.1569ZM12.7707 20.4982C12.653 20.5685 12.5426 20.6503 12.441 20.7423L7.15924 18.6675C7.1505 18.3681 7.07031 18.0751 6.92535 17.8129L9.32722 15.6096C10.275 16.556 11.5566 17.0923 12.896 17.1029L13.1337 20.3427C13.0083 20.3863 12.8869 20.4405 12.7707 20.5046" fill="#474645"/>
</g>
<defs>
<clipPath id="clip0_624_142">
<rect width="21.7658" height="24" fill="white" transform="translate(1)"/>
</clipPath>
</defs>
</svg>
