<svg width="24" height="24" viewBox="0 0 24 24" fill="none" xmlns="http://www.w3.org/2000/svg">
<path d="M0.263682 0.263211C0.111259 0.415598 0.0185841 0.617625 0.00250818 0.832558C-0.0135677 1.04749 0.0480228 1.26106 0.176081 1.43442L0.263682 1.53522L5.10453 6.37727C2.74414 8.03165 1.05915 10.4814 0.358483 13.2773C0.304457 13.5075 0.343168 13.7497 0.46625 13.9516C0.589332 14.1534 0.786899 14.2987 1.01625 14.3561C1.24561 14.4135 1.48833 14.3783 1.69196 14.2582C1.89559 14.1381 2.04378 13.9426 2.1045 13.7142C2.72719 11.2325 4.26081 9.07604 6.40055 7.67329L8.57257 9.84531C7.70495 10.7519 7.22686 11.9622 7.2407 13.217C7.25454 14.4718 7.75921 15.6713 8.64661 16.5585C9.53401 17.4458 10.7336 17.9502 11.9884 17.9638C13.2432 17.9775 14.4534 17.4992 15.3598 16.6314L22.4627 23.7355C22.6233 23.8965 22.8389 23.9908 23.0662 23.9993C23.2934 24.0078 23.5155 23.93 23.6877 23.7815C23.86 23.633 23.9696 23.4248 23.9946 23.1987C24.0195 22.9727 23.958 22.7456 23.8223 22.563L23.7347 22.4622L16.399 15.1254L16.4002 15.123L8.06016 6.78768L8.06256 6.78528L6.70295 5.42926L1.53569 0.263211C1.36694 0.0946685 1.13819 0 0.899688 0C0.661185 0 0.432434 0.0946685 0.263682 0.263211V0.263211ZM11.9998 4.19925C10.7998 4.19925 9.63578 4.37685 8.53297 4.70926L10.0174 6.19247C12.5849 5.6841 15.2495 6.18177 17.4604 7.5826C19.6714 8.98343 21.2594 11.1803 21.8963 13.7189C21.9585 13.9457 22.1069 14.1391 22.3098 14.2578C22.5127 14.3765 22.754 14.4111 22.9821 14.3542C23.2102 14.2973 23.407 14.1534 23.5304 13.9533C23.6538 13.7531 23.6939 13.5127 23.6423 13.2833C22.9916 10.6883 21.4926 8.38497 19.3832 6.73917C17.2739 5.09337 14.6752 4.19941 11.9998 4.19925V4.19925ZM12.2338 8.4113L16.7951 12.9713C16.7361 11.7808 16.2365 10.6547 15.3935 9.81198C14.5506 8.96922 13.4244 8.46999 12.2338 8.4113V8.4113Z" fill="black"/>
</svg>
