<svg width="24" height="24" viewBox="0 0 24 24" fill="none" xmlns="http://www.w3.org/2000/svg">
<path d="M12 10C12.2652 10 12.5196 10.1054 12.7071 10.2929C12.8946 10.4804 13 10.7348 13 11V17C13 17.2652 12.8946 17.5196 12.7071 17.7071C12.5196 17.8946 12.2652 18 12 18C11.7348 18 11.4804 17.8946 11.2929 17.7071C11.1054 17.5196 11 17.2652 11 17V11C11 10.7348 11.1054 10.4804 11.2929 10.2929C11.4804 10.1054 11.7348 10 12 10V10Z" fill="black"/>
<path d="M12.0009 8.5C12.1979 8.5 12.393 8.4612 12.575 8.38582C12.7569 8.31044 12.9223 8.19995 13.0616 8.06066C13.2009 7.92137 13.3114 7.75601 13.3867 7.57403C13.4621 7.39204 13.5009 7.19698 13.5009 7C13.5009 6.80302 13.4621 6.60796 13.3867 6.42597C13.3114 6.24399 13.2009 6.07863 13.0616 5.93934C12.9223 5.80005 12.7569 5.68956 12.575 5.61418C12.393 5.5388 12.1979 5.5 12.0009 5.5C11.6036 5.5 11.2226 5.65782 10.9417 5.93875C10.6608 6.21968 10.5029 6.60071 10.5029 6.998C10.5029 7.39529 10.6608 7.77632 10.9417 8.05725C11.2226 8.33818 11.6036 8.496 12.0009 8.496V8.5Z" fill="black"/>
<path d="M0 12C-2.34822e-08 10.4241 0.310389 8.86371 0.913445 7.4078C1.5165 5.95189 2.40042 4.62902 3.51472 3.51472C4.62902 2.40042 5.95189 1.5165 7.4078 0.913446C8.86371 0.310389 10.4241 0 12 0C13.5759 0 15.1363 0.310389 16.5922 0.913446C18.0481 1.5165 19.371 2.40042 20.4853 3.51472C21.5996 4.62902 22.4835 5.95189 23.0866 7.4078C23.6896 8.86371 24 10.4241 24 12C24 15.1826 22.7357 18.2348 20.4853 20.4853C18.2348 22.7357 15.1826 24 12 24C8.8174 24 5.76516 22.7357 3.51472 20.4853C1.26428 18.2348 4.74244e-08 15.1826 0 12V12ZM12 2C9.34784 2 6.8043 3.05357 4.92893 4.92893C3.05357 6.8043 2 9.34784 2 12C2 14.6522 3.05357 17.1957 4.92893 19.0711C6.8043 20.9464 9.34784 22 12 22C14.6522 22 17.1957 20.9464 19.0711 19.0711C20.9464 17.1957 22 14.6522 22 12C22 9.34784 20.9464 6.8043 19.0711 4.92893C17.1957 3.05357 14.6522 2 12 2V2Z" fill="black"/>
</svg>
